<svg xmlns="http://www.w3.org/2000/svg" viewBox="0 10 120 120" fill="none">
  <defs>
    <linearGradient id="fav-shieldSilver" x1="0%" y1="0%" x2="100%" y2="100%">
      <stop offset="0%" stop-color="#f1f5f9"/>
      <stop offset="50%" stop-color="#e2e8f0"/>
      <stop offset="100%" stop-color="#cbd5e1"/>
    </linearGradient>
    <linearGradient id="fav-sweepGrad" x1="0%" y1="50%" x2="100%" y2="50%">
      <stop offset="0%" stop-color="#a3e635" stop-opacity="0.35"/>
      <stop offset="100%" stop-color="#84cc16" stop-opacity="0.9"/>
    </linearGradient>
    <filter id="fav-glow">
      <feGaussianBlur stdDeviation="0.5" result="blur"/>
      <feMerge>
        <feMergeNode in="blur"/>
        <feMergeNode in="SourceGraphic"/>
      </feMerge>
    </filter>
    <clipPath id="fav-shieldClip">
      <path d="M60 18 C82 18 100 34 100 58 C100 82 82 112 60 116 C38 112 20 82 20 58 C20 34 38 18 60 18Z"/>
    </clipPath>
  </defs>
  <path d="M60 8 C88 8 112 28 112 58 C112 88 90 128 60 132 C30 128 8 88 8 58 C8 28 32 8 60 8Z" fill="url(#fav-shieldSilver)" stroke="#94a3b8" stroke-width="2"/>
  <path d="M60 14 C85 14 106 32 106 58 C106 84 86 120 60 124 C34 120 14 84 14 58 C14 32 35 14 60 14Z" fill="none" stroke="#065f46" stroke-width="0.8"/>
  <path d="M60 18 C82 18 100 34 100 58 C100 82 82 112 60 116 C38 112 20 82 20 58 C20 34 38 18 60 18Z" fill="#047857"/>
  <g clip-path="url(#fav-shieldClip)">
    <circle cx="60" cy="62" r="38" fill="#064e3b"/>
    <circle cx="60" cy="62" r="32" stroke="#34d399" stroke-width="0.6" fill="none" opacity="0.8"/>
    <circle cx="60" cy="62" r="24" stroke="#34d399" stroke-width="0.5" fill="none" opacity="0.7"/>
    <circle cx="60" cy="62" r="16" stroke="#34d399" stroke-width="0.5" fill="none" opacity="0.7"/>
    <circle cx="60" cy="62" r="8" stroke="#34d399" stroke-width="0.5" fill="none" opacity="0.7"/>
    <g stroke="#34d399" stroke-width="0.45" opacity="0.75">
      <line x1="60" y1="62" x2="60" y2="26"/>
      <line x1="60" y1="62" x2="85" y2="38"/>
      <line x1="60" y1="62" x2="98" y2="62"/>
      <line x1="60" y1="62" x2="85" y2="86"/>
      <line x1="60" y1="62" x2="60" y2="98"/>
      <line x1="60" y1="62" x2="35" y2="86"/>
      <line x1="60" y1="62" x2="22" y2="62"/>
      <line x1="60" y1="62" x2="35" y2="38"/>
    </g>
    <circle cx="60" cy="62" r="3" fill="#a3e635" filter="url(#fav-glow)"/>
    <path d="M60 62 L60 26 A38 38 0 0 1 92.8 45.2 Z" fill="url(#fav-sweepGrad)" filter="url(#fav-glow)"/>
  </g>
</svg>
